:FULLY-SPECIFIED
:FORCE-ALL-JOINTS-BE-3DOF
:DEGREES
146
root 8.81455 16.261 -16.9146 6.08823 5.96533 2.63386
lfemur -1.57388 2.53503 -24.076
ltibia 22.3687 -0 0
lfoot -14.4098 4.66823 0.0635593
ltoes -4.48376 0 0
rfemur -32.5811 10.0825 13.5089
rtibia 26.9051 -0 0
rfoot -22.6751 -7.84862 0.155556
rtoes -18.9928 0 0
lowerback -6.72561 -1.86183 -3.94231
upperback -1.51496 -2.25561 2.54709
thorax 2.58145 -1.16705 4.52915
lowerneck -17.1266 -6.00541 -14.2362
upperneck 18.1875 -7.38446 12.9697
head 9.67215 -3.11933 5.95188
lclavicle -6.86504e-14 2.02043e-15 5.42626e-30
lhumerus -36.8325 -20.6015 96.875
lradius 37.9889 -0 0
lwrist 13.3609 0 0
lhand -12.6783 -24.442 0.00215978
lfingers 7.12502 -0 0
lthumb 13.4027 5.09444 -0.000466477
rclavicle -6.86504e-14 2.02043e-15 5.42626e-30
rhumerus -44.5049 8.35361 -81.3544
rradius 37.9916 -0 0
rwrist -20.0268 0 0
rhand -30.5457 -23.5996 0.00669037
rfingers 7.12502 -0 0
rthumb -3.84448 -53.5438 0.00640577
147
root 8.79603 16.2713 -16.7726 6.12594 5.95606 2.51053
lfemur -2.39395 2.63432 -23.9203
ltibia 23.3413 -0 0
lfoot -14.3666 4.8613 0.0645783
ltoes -4.44213 0 0
rfemur -32.1683 9.9741 13.8895
rtibia 26.9442 -0 0
rfoot -22.5895 -7.61006 0.158052
rtoes -18.8663 0 0
lowerback -6.65657 -1.78066 -3.82908
upperback -1.5289 -2.15761 2.56736
thorax 2.51633 -1.11581 4.49551
lowerneck -17.0216 -6.0329 -14.279
upperneck 18.0457 -7.43181 13.0531
head 9.61714 -3.13945 5.98007
lclavicle -6.73192e-14 1.486e-15 5.51318e-30
lhumerus -37.1633 -20.3491 96.8891
lradius 37.8521 -0 0
lwrist 13.4652 0 0
lhand -12.7538 -24.4458 0.00219438
lfingers 7.12502 -0 0
lthumb 13.3299 5.09528 -0.00047395
rclavicle -6.73192e-14 1.486e-15 5.51318e-30
rhumerus -44.3948 8.39713 -81.2712
rradius 38.1745 -0 0
rwrist -20.0698 0 0
rhand -30.566 -23.6428 0.00679754
rfingers 7.12502 -0 0
rthumb -3.86406 -53.5867 0.00650839
148
root 8.77752 16.2816 -16.6306 6.16368 5.94687 2.3872
lfemur -3.21381 2.73583 -23.766
ltibia 24.3138 -0 0
lfoot -14.3234 5.05437 0.0654517
ltoes -4.4005 0 0
rfemur -31.7564 9.86302 14.2692
rtibia 26.9834 -0 0
rfoot -22.5039 -7.3715 0.160191
rtoes -18.7398 0 0
lowerback -6.58738 -1.69962 -3.71575
upperback -1.5428 -2.05961 2.58759
thorax 2.45119 -1.06461 4.46182
lowerneck -16.9165 -6.06031 -14.3218
upperneck 17.9037 -7.47897 13.1365
head 9.56211 -3.15954 6.00829
lclavicle -6.5988e-14 9.51557e-16 5.58768e-30
lhumerus -37.4935 -20.0967 96.9015
lradius 37.7153 -0 0
lwrist 13.5696 0 0
lhand -12.8293 -24.4495 0.00222404
lfingers 7.12502 -0 0
lthumb 13.2571 5.09612 -0.000480356
rclavicle -6.5988e-14 9.51557e-16 5.58768e-30
rhumerus -44.2846 8.44049 -81.1879
rradius 38.3573 -0 0
rwrist -20.1129 0 0
rhand -30.5863 -23.6861 0.00688941
rfingers 7.12502 -0 0
rthumb -3.88365 -53.6296 0.00659634
149
root 8.75901 16.2919 -16.4886 6.20143 5.93777 2.26386
lfemur -4.03347 2.83953 -23.6131
ltibia 25.2864 -0 0
lfoot -14.2802 5.24744 0.0661796
ltoes -4.35886 0 0
rfemur -31.3454 9.74925 14.648
rtibia 27.0225 -0 0
rfoot -22.4183 -7.13293 0.161973
rtoes -18.6133 0 0
lowerback -6.51802 -1.61871 -3.60232
upperback -1.55667 -1.9616 2.60781
thorax 2.38601 -1.01345 4.42806
lowerneck -16.8114 -6.08764 -14.3647
upperneck 17.7617 -7.52591 13.2201
head 9.50707 -3.17961 6.03652
lclavicle -6.46568e-14 4.1712e-16 5.64977e-30
lhumerus -37.8232 -19.8441 96.9125
lradius 37.5785 -0 0
lwrist 13.6739 0 0
lhand -12.9048 -24.4533 0.00224876
lfingers 7.12502 -0 0
lthumb 13.1843 5.09696 -0.000485694
rclavicle -6.46568e-14 4.1712e-16 5.64977e-30
rhumerus -44.1744 8.48369 -81.1045
rradius 38.5402 -0 0
rwrist -20.1559 0 0
rhand -30.6066 -23.7293 0.00696596
rfingers 7.12502 -0 0
rthumb -3.90323 -53.6725 0.00666964
150
root 8.74049 16.3021 -16.3466 6.2392 5.92874 2.14052
lfemur -4.85292 2.94541 -23.4617
ltibia 26.2589 -0 0
lfoot -14.237 5.44051 0.066762
ltoes -4.31723 0 0
rfemur -30.9353 9.63281 15.0258
rtibia 27.0617 -0 0
rfoot -22.3327 -6.89436 0.163399
rtoes -18.4868 0 0
lowerback -6.44851 -1.53795 -3.48881
upperback -1.5705 -1.86359 2.62799
thorax 2.32081 -0.962325 4.39425
lowerneck -16.7063 -6.1149 -14.4076
upperneck 17.6196 -7.57265 13.3038
head 9.45202 -3.19965 6.06477
lclavicle -6.33256e-14 -1.17318e-16 5.69944e-30
lhumerus -38.1523 -19.5916 96.9218
lradius 37.4417 -0 0
lwrist 13.7783 0 0
lhand -12.9803 -24.457 0.00226853
lfingers 7.12502 -0 0
lthumb 13.1115 5.0978 -0.000489964
rclavicle -6.33256e-14 -1.17318e-16 5.69944e-30
rhumerus -44.064 8.52673 -81.0211
rradius 38.7231 -0 0
rwrist -20.199 0 0
rhand -30.6269 -23.7726 0.0070272
rfingers 7.12502 -0 0
rthumb -3.92282 -53.7154 0.00672828
151
root 8.72198 16.3124 -16.2046 6.27699 5.91979 2.01718
lfemur -5.67217 3.05344 -23.3119
ltibia 27.2315 -0 0
lfoot -14.1938 5.63359 0.0671987
ltoes -4.27559 0 0
rfemur -30.5261 9.51371 15.4026
rtibia 27.1009 -0 0
rfoot -22.2471 -6.65579 0.164469
rtoes -18.3603 0 0
lowerback -6.37884 -1.45732 -3.3752
upperback -1.58429 -1.76557 2.64816
thorax 2.25558 -0.91124 4.36038
lowerneck -16.6011 -6.14208 -14.4505
upperneck 17.4775 -7.61918 13.3876
head 9.39696 -3.21965 6.09305
lclavicle -6.19944e-14 -6.51756e-16 5.73669e-30
lhumerus -38.4808 -19.3389 96.9296
lradius 37.305 -0 0
lwrist 13.8826 0 0
lhand -13.0559 -24.4608 0.00228336
lfingers 7.12502 -0 0
lthumb 13.0387 5.09864 -0.000493167
rclavicle -6.19944e-14 -6.51756e-16 5.73669e-30
rhumerus -43.9536 8.56961 -80.9375
rradius 38.9059 -0 0
rwrist -20.242 0 0
rhand -30.6471 -23.8158 0.00707313
rfingers 7.12502 -0 0
rthumb -3.94241 -53.7582 0.00677225
152
root 8.70347 16.3227 -16.0626 6.3148 5.91093 1.89383
lfemur -6.49122 3.16359 -23.1635
ltibia 28.204 -0 0
lfoot -14.1506 5.82666 0.0674899
ltoes -4.23396 0 0
rfemur -30.1178 9.39196 15.7784
rtibia 27.14 -0 0
rfoot -22.1614 -6.41722 0.165182
rtoes -18.2338 0 0
lowerback -6.30902 -1.37683 -3.26149
upperback -1.59806 -1.66755 2.66829
thorax 2.19031 -0.860194 4.32645
lowerneck -16.496 -6.16918 -14.4936
upperneck 17.3352 -7.66551 13.4716
head 9.34189 -3.23964 6.12134
lclavicle -6.06632e-14 -1.18619e-15 5.76152e-30
lhumerus -38.8088 -19.0863 96.9359
lradius 37.1682 -0 0
lwrist 13.9869 0 0
lhand -13.1314 -24.4645 0.00229324
lfingers 7.12502 -0 0
lthumb 12.9659 5.09948 -0.000495302
rclavicle -6.06632e-14 -1.18619e-15 5.76152e-30
rhumerus -43.8431 8.61234 -80.8539
rradius 39.0888 -0 0
rwrist -20.2851 0 0
rhand -30.6674 -23.8591 0.00710376
rfingers 7.12502 -0 0
rthumb -3.96199 -53.8011 0.00680157
153
root 8.68496 16.333 -15.9206 6.35263 5.90215 1.77047
lfemur -7.31007 3.27585 -23.0168
ltibia 29.1766 -0 0
lfoot -14.1074 6.01974 0.0676355
ltoes -4.19233 0 0
rfemur -29.7105 9.26758 16.1532
rtibia 27.1792 -0 0
rfoot -22.0758 -6.17865 0.165539
rtoes -18.1073 0 0
lowerback -6.23903 -1.29648 -3.14769
upperback -1.61178 -1.56952 2.68841
thorax 2.12502 -0.809187 4.29247
lowerneck -16.3908 -6.1962 -14.5366
upperneck 17.1929 -7.71163 13.5557
head 9.28681 -3.25959 6.14965
lclavicle -5.9332e-14 -1.72063e-15 5.77394e-30
lhumerus -39.1362 -18.8336 96.9406
lradius 37.0314 -0 0
lwrist 14.0913 0 0
lhand -13.2069 -24.4683 0.00229819
lfingers 7.12502 -0 0
lthumb 12.8931 5.10032 -0.00049637
rclavicle -5.9332e-14 -1.72063e-15 5.77394e-30
rhumerus -43.7325 8.6549 -80.7701
rradius 39.2717 -0 0
rwrist -20.3281 0 0
rhand -30.6877 -23.9023 0.00711907
rfingers 7.12502 -0 0
rthumb -3.98158 -53.844 0.00681623
154
root 8.66644 16.3432 -15.7785 6.39047 5.89344 1.64712
lfemur -8.12872 3.3902 -22.8717
ltibia 30.1491 -0 0
lfoot -14.0642 6.21281 0.0676355
ltoes -4.15069 0 0
rfemur -29.3042 9.14057 16.5269
rtibia 27.2183 -0 0
rfoot -21.9902 -5.94008 0.165539
rtoes -17.9809 0 0
lowerback -6.16889 -1.21627 -3.0338
upperback -1.62547 -1.47149 2.7085
thorax 2.0597 -0.758218 4.25842
lowerneck -16.2856 -6.22314 -14.5798
upperneck 17.0504 -7.75755 13.6399
head 9.23172 -3.27952 6.17799
lclavicle -5.80007e-14 -2.25507e-15 5.77394e-30
lhumerus -39.4631 -18.5809 96.9438
lradius 36.8946 -0 0
lwrist 14.1956 0 0
lhand -13.2824 -24.472 0.00229819
lfingers 7.12502 -0 0
lthumb 12.8202 5.10116 -0.00049637
rclavicle -5.80007e-14 -2.25507e-15 5.77394e-30
rhumerus -43.6219 8.69731 -80.6863
rradius 39.4545 -0 0
rwrist -20.3712 0 0
rhand -30.708 -23.9456 0.00711907
rfingers 7.12502 -0 0
rthumb -4.00116 -53.8869 0.00681623
155
root 8.64793 16.3535 -15.6365 6.42834 5.88482 1.52376
lfemur -8.94718 3.5066 -22.7282
ltibia 31.1217 -0 0
lfoot -14.021 6.40588 0.0674899
ltoes -4.10906 0 0
rfemur -28.8989 9.01096 16.8996
rtibia 27.2575 -0 0
rfoot -21.9046 -5.70151 0.165182
rtoes -17.8544 0 0
lowerback -6.09859 -1.1362 -2.91981
upperback -1.63913 -1.37345 2.72856
thorax 1.99435 -0.707288 4.22432
lowerneck -16.1803 -6.25001 -14.6229
upperneck 16.9079 -7.80325 13.7242
head 9.17661 -3.29942 6.20634
lclavicle -5.66695e-14 -2.78951e-15 5.76152e-30
lhumerus -39.7896 -18.3281 96.9455
lradius 36.7578 -0 0
lwrist 14.3 0 0
lhand -13.3579 -24.4758 0.00229324
lfingers 7.12502 -0 0
lthumb 12.7474 5.102 -0.000495302
rclavicle -5.66695e-14 -2.78951e-15 5.76152e-30
rhumerus -43.5112 8.73955 -80.6024
rradius 39.6374 -0 0
rwrist -20.4142 0 0
rhand -30.7283 -23.9888 0.00710376
rfingers 7.12502 -0 0
rthumb -4.02075 -53.9298 0.00680157
156
root 8.62942 16.3638 -15.4945 6.46622 5.87628 1.40039
lfemur -9.76545 3.62504 -22.5863
ltibia 32.0942 -0 0
lfoot -13.9778 6.59896 0.0671987
ltoes -4.06743 0 0
rfemur -28.4946 8.87875 17.2712
rtibia 27.2966 -0 0
rfoot -21.8189 -5.46294 0.164469
rtoes -17.7279 0 0
lowerback -6.02814 -1.05627 -2.80573
upperback -1.65275 -1.27541 2.7486
thorax 1.92897 -0.656397 4.19017
lowerneck -16.075 -6.27679 -14.6662
upperneck 16.7653 -7.84875 13.8087
head 9.1215 -3.3193 6.23471
lclavicle -5.53383e-14 -3.32394e-15 5.73669e-30
lhumerus -40.1155 -18.0754 96.9456
lradius 36.621 -0 0
lwrist 14.4043 0 0
lhand -13.4334 -24.4795 0.00228336
lfingers 7.12502 -0 0
lthumb 12.6746 5.10284 -0.000493167
rclavicle -5.53383e-14 -3.32394e-15 5.73669e-30
rhumerus -43.4004 8.78163 -80.5183
rradius 39.8203 -0 0
rwrist -20.4573 0 0
rhand -30.7486 -24.0321 0.00707313
rfingers 7.12502 -0 0
rthumb -4.04033 -53.9727 0.00677225
157
root 8.61091 16.3741 -15.3525 6.50412 5.86782 1.27702
lfemur -10.5835 3.74548 -22.4462
ltibia 33.0668 -0 0
lfoot -13.9346 6.79203 0.066762
ltoes -4.02579 0 0
rfemur -28.0914 8.74395 17.6417
rtibia 27.3358 -0 0
rfoot -21.7333 -5.22437 0.163399
rtoes -17.6014 0 0
lowerback -5.95753 -0.976477 -2.69155
upperback -1.66633 -1.17736 2.76862
thorax 1.86356 -0.605545 4.15595
lowerneck -15.9697 -6.3035 -14.7094
upperneck 16.6227 -7.89404 13.8932
head 9.06637 -3.33914 6.2631
lclavicle -5.40071e-14 -3.85838e-15 5.69944e-30
lhumerus -40.441 -17.8227 96.9443
lradius 36.4843 -0 0
lwrist 14.5086 0 0
lhand -13.509 -24.4833 0.00226853
lfingers 7.12502 -0 0
lthumb 12.6018 5.10368 -0.000489964
rclavicle -5.40071e-14 -3.85838e-15 5.69944e-30
rhumerus -43.2895 8.82355 -80.4342
rradius 40.0031 -0 0
rwrist -20.5003 0 0
rhand -30.7688 -24.0753 0.0070272
rfingers 7.12502 -0 0
rthumb -4.05992 -54.0155 0.00672828
